<?xml version="1.0" encoding="UTF-8" standalone="no"?><!DOCTYPE svg PUBLIC "-//W3C//DTD SVG 1.1//EN" "http://www.w3.org/Graphics/SVG/1.1/DTD/svg11.dtd"><svg width="100%" height="100%" viewBox="0 0 977 255" version="1.1" xmlns="http://www.w3.org/2000/svg" xmlns:xlink="http://www.w3.org/1999/xlink" xml:space="preserve" xmlns:serif="http://www.serif.com/" style="fill-rule:evenodd;clip-rule:evenodd;stroke-linejoin:round;stroke-miterlimit:2;"><rect id="Монтажная-область1" serif:id="Монтажная область1" x="0" y="0" width="976.867" height="254.276" style="fill:none;"/><path d="M968.536,113.181c-0.006,-0.006 -0.011,-0.013 -0.018,-0.019l-104.504,-104c-7.829,-7.791 -20.492,-7.762 -28.285,0.068c-7.792,7.829 -7.762,20.492 0.067,28.284l70.164,69.824l-884.892,0c-11.046,0 -20,8.954 -20,20c0,11.046 8.954,20 20,20l884.891,0l-70.162,69.824c-7.829,7.792 -7.859,20.455 -0.067,28.284c7.793,7.831 20.457,7.858 28.285,0.068l104.504,-104c0.006,-0.006 0.011,-0.013 0.018,-0.019c7.833,-7.818 7.808,-20.522 -0.001,-28.314Z" style="fill:green;fill-rule:nonzero;"/></svg>