<?xml version="1.0" encoding="UTF-8" standalone="no"?><!DOCTYPE svg PUBLIC "-//W3C//DTD SVG 1.1//EN" "http://www.w3.org/Graphics/SVG/1.1/DTD/svg11.dtd"><svg width="100%" height="100%" viewBox="0 0 512 512" version="1.1" xmlns="http://www.w3.org/2000/svg" xmlns:xlink="http://www.w3.org/1999/xlink" xml:space="preserve" xmlns:serif="http://www.serif.com/" style="fill-rule:evenodd;clip-rule:evenodd;stroke-linejoin:round;stroke-miterlimit:2;"><path d="M256,0c-141.164,0 -256,114.836 -256,256c0,141.164 114.836,256 256,256c141.164,0 256,-114.836 256,-256c0,-141.164 -114.836,-256 -256,-256Z" style="fill:#89f495;fill-rule:nonzero;"/><path d="M385.75,201.75l-138.668,138.664c-4.16,4.16 -9.621,6.254 -15.082,6.254c-5.461,0 -10.922,-2.094 -15.082,-6.254l-69.332,-69.332c-8.344,-8.34 -8.344,-21.824 0,-30.164c8.34,-8.344 21.82,-8.344 30.164,0l54.25,54.25l123.586,-123.582c8.34,-8.344 21.82,-8.344 30.164,0c8.34,8.34 8.34,21.82 0,30.164Z" style="fill:#fafafa;fill-rule:nonzero;"/></svg>